<svg width="48.12" height="48.12" xmlns="http://www.w3.org/2000/svg" data-name="圖層 1">

 <g>
  <title>Layer 1</title>
  <rect id="svg_1" fill="#0f4c81" height="7.13" width="3.13" y="27.61" x="22.5" class="cls-1"/>
  <path id="svg_2" fill="#0f4c81" d="m24.06,13.88235a9.62,9.62 0 0 0 -4,18.36l0,-3.7a6.5,6.5 0 1 1 8.06,0l0,3.67a9.62,9.62 0 0 0 -4,-18.36l-0.06,0.03z" class="cls-1"/>
  <path id="svg_3" fill="#0f4c81" d="m29.24,8.15l0,3.32a13.71,13.71 0 1 1 -10.36,0l0,-3.32a16.84,16.84 0 1 0 10.36,0z" class="cls-1"/>
  <path id="svg_4" fill="#0f4c81" d="m48.12,24.06a24.12,24.12 0 1 0 -9.3,19l-2.35,-2.15a20.75,20.75 0 0 1 -12.41,4.09a21,21 0 1 1 17,-8.73l-0.43,0.56l2.53,2.07s1.24,-2 1.64,-2.69a23.45,23.45 0 0 0 3.32,-12.15z" class="cls-1"/>
 </g>
</svg>