<svg id="圖層_1" data-name="圖層 1" xmlns="http://www.w3.org/2000/svg" viewBox="0 0 48.12 48.12"><defs><style>.cls-1{fill:#fff;}</style></defs><rect class="cls-1" x="22.5" y="27.61" width="3.13" height="7.13"/><path class="cls-1" d="M24.06,14a9.62,9.62,0,0,0-4,18.36V28.66a6.5,6.5,0,1,1,8.06,0v3.67a9.62,9.62,0,0,0-4-18.36Z"/><path class="cls-1" d="M29.24,8.15v3.32a13.71,13.71,0,1,1-10.36,0V8.15a16.84,16.84,0,1,0,10.36,0Z"/><path class="cls-1" d="M48.12,24.06a24.12,24.12,0,1,0-9.3,19l-2.35-2.15A20.75,20.75,0,0,1,24.06,45a21,21,0,1,1,17-8.73l-.43.56,2.53,2.07s1.24-2,1.64-2.69A23.45,23.45,0,0,0,48.12,24.06Z"/></svg>